PathFileType	4	(X/Y/Z)	E:\Qualisys_Data\Carbon_Farble_Plate\Data\Amateur_Runner\S2\T1\S2T1V22_c3d.trc
DataRate	CameraRate	NumFrames	NumMarkers	Units	OrigDataRate	OrigDataStartFrame	OrigNumFrames
200.000000	200.000000	4	39	mm	200.000000	286	327
Frame#	Time	LSHO			RSHO			LICST			RICST			LASIS			LHEEL			RASIS			LTROC			RTROC			SACR			LTH1			LSK4			LTH2			LTH3			RHM5			LSK2			LTH4			RTH1			LTOE			RTH2			RTH3			RTH4			LLEP			RLEP			LSK1			LSK3			RSK1			LHM5			RSK2			LFT1			RSK3			RSK4			LLME			RLME			RTOE			RHEEL			RFT1			RFT2			LFT2			
		X1	Y1	Z1	X2	Y2	Z2	X3	Y3	Z3	X4	Y4	Z4	X5	Y5	Z5	X6	Y6	Z6	X7	Y7	Z7	X8	Y8	Z8	X9	Y9	Z9	X10	Y10	Z10	X11	Y11	Z11	X12	Y12	Z12	X13	Y13	Z13	X14	Y14	Z14	X15	Y15	Z15	X16	Y16	Z16	X17	Y17	Z17	X18	Y18	Z18	X19	Y19	Z19	X20	Y20	Z20	X21	Y21	Z21	X22	Y22	Z22	X23	Y23	Z23	X24	Y24	Z24	X25	Y25	Z25	X26	Y26	Z26	X27	Y27	Z27	X28	Y28	Z28	X29	Y29	Z29	X30	Y30	Z30	X31	Y31	Z31	X32	Y32	Z32	X33	Y33	Z33	X34	Y34	Z34	X35	Y35	Z35	X36	Y36	Z36	X37	Y37	Z37	X38	Y38	Z38	X39	Y39	Z39	

287	1.43	2187.642822265625	1467.940063476562	-455.0623474121094	2106.61572265625	1461.934326171875	-156.4083099365234	2110.61962890625	1000.069763183594	-438.4209594726562	2113.170166015625	1008.994506835938	-139.0656890869141	2161.784912109375	949.2205200195312	-422.6903991699219	1679.439453125	226.0685272216797	-306.6321105957031	2172.736328125	963.0167846679688	-166.4853973388672	2015.905639648438	890.7926635742188	-432.2350463867188	2049.1630859375	906.3385009765624	-116.3570709228516	2016.925170898438	1042.600463867188	-295.8926696777344	2081.992431640625	633.4248657226562	-436.2175598144531	1803.470336914062	356.5404357910156	-399.5477905273438	2001.062622070312	655.0121459960938	-441.7154846191406	2054.073974609375	536.0946655273438	-412.8824157714844	2138.203125	158.2379150390625	-113.2425079345703	1864.19775390625	433.6014099121094	-419.6307678222656	1972.476196289062	561.6397705078125	-413.7301025390625	2297.852294921875	721.6509399414062	-107.2373657226562	1825.224853515625	48.45416259765625	-296.5465393066406	2230.28076171875	684.02001953125	-98.61145782470705	2344.387939453125	632.237548828125	-122.6166305541992	2272.32958984375	597.2457885742188	-113.5581207275391	1989.0048828125	506.1747741699219	-413.5763244628906	2303.308349609375	575.7726440429688	-114.4024124145508	1927.356567382812	383.7616882324219	-415.16455078125	1864.406494140625	306.2765197753906	-400.4188232421875	2272.190185546875	460.2289733886719	-115.1906661987305	1774.500244140625	59.19402694702148	-363.7608032226562	2210.751220703125	512.1331787109375	-114.9033355712891	1673.470458984375	205.5190887451172	-274.0672302246094	2207.033203125	382.2865600585938	-128.2696685791016	2148.033203125	435.7873840332031	-129.3028717041016	1730.009155273438	184.2151184082031	-362.7703247070312	2060.5380859375	263.8997192382812	-162.4705657958984	2204.07470703125	140.9471588134766	-166.5196533203125	2009.373291015625	278.07568359375	-228.7302856445312	2012.587036132812	244.8331146240234	-256.5155334472656	1992.167358398438	257.4686584472656	-203.1943664550781	1659.709716796875	202.3453979492188	-327.2344970703125
288	1.435	2207.27197265625	1471.937866210938	-453.6464233398438	2124.66357421875	1466.021728515625	-156.5548400878906	2130.642578125	1003.521545410156	-438.3646240234375	2133.468505859375	1013.346313476562	-139.4834899902344	2182.06884765625	952.848388671875	-422.8309020996094	1697.394409179688	235.9335174560547	-312.2459716796875	2193.045166015625	967.378662109375	-166.9584045410156	2035.70166015625	895.6867065429688	-432.8846740722656	2070.553955078125	911.4786987304688	-115.9164199829102	2036.768676757812	1046.97802734375	-296.3944396972656	2096.3037109375	638.0802001953125	-436.8099670410156	1815.107421875	362.9318542480469	-401.4905700683594	2015.485595703125	660.8276977539062	-441.7571411132812	2066.641845703125	541.1456909179688	-413.9402160644531	2179.79052734375	152.1639099121094	-112.2881546020508	1875.813354492188	440.4405822753906	-420.2888488769531	1985.652099609375	567.9901733398438	-414.3095703125	2318.995361328125	725.399169921875	-108.2774887084961	1829.526611328125	47.75497817993164	-298.1217651367188	2251.38623046875	688.7252197265625	-98.8198013305664	2364.89208984375	635.6468505859375	-123.0947952270508	2292.666748046875	601.5933837890625	-113.5187606811523	2000.938354492188	512.8192749023438	-414.8882141113281	2322.950439453125	578.555908203125	-115.3576202392578	1937.728393554688	391.05908203125	-416.7012634277344	1875.753051757812	312.7568359375	-403.2523498535156	2296.18994140625	460.7553405761719	-114.9834899902344	1780.290283203125	60.66692352294922	-365.9449157714844	2232.04736328125	508.9418334960938	-114.2256927490234	1686.85693359375	215.6825408935547	-278.2624206542969	2235.784912109375	379.3224487304688	-128.1089782714844	2174.2587890625	429.660888671875	-129.4145355224609	1741.776000976562	189.9941558837891	-366.5580139160156	2096.285400390625	252.7480621337891	-162.7292022705078	2247.53515625	139.1850891113281	-164.0852508544922	2045.348999023438	262.895263671875	-228.0768737792969	2051.021728515625	229.9674224853516	-257.3784790039062	2028.47900390625	241.1996612548828	-203.787841796875	1673.422607421875	212.9394836425781	-331.6049194335938
289	1.44	2225.22802734375	1476.064819335938	-451.9392700195312	2143.186767578125	1469.809692382812	-157.0216522216797	2150.758544921875	1007.115478515625	-438.632080078125	2154.02978515625	1017.400512695312	-140.4833526611328	2202.376220703125	956.3148803710938	-423.3129272460938	1712.62841796875	244.7769012451172	-316.7720947265625	2213.59521484375	971.1283569335938	-167.5648803710938	2055.284423828125	900.3021240234375	-433.3349914550781	2091.089111328125	916.0004272460938	-116.5811614990234	2057.19677734375	1050.842407226562	-296.6080627441406	2110.4697265625	642.5234985351562	-437.8844299316406	1826.609497070312	369.7806396484375	-403.7106628417969	2030.436157226562	666.7830810546875	-441.8906555175781	2079.18310546875	546.23583984375	-415.1419982910156	2221.1240234375	147.1727905273438	-110.6378326416016	1887.827758789062	446.8040771484375	-421.5375366210938	1998.4169921875	574.5665893554688	-414.4031066894531	2339.799072265625	728.2256469726562	-108.9012908935547	1834.402709960938	47.30824661254883	-299.9693908691406	2271.502197265625	692.3636474609375	-98.97588348388672	2384.801025390625	638.0177612304688	-123.5433349609375	2311.953857421875	604.7479858398438	-114.4759140014648	2013.59619140625	518.4482421875	-415.0052185058594	2342.32958984375	581.3809814453125	-115.6972808837891	1949.575439453125	397.1775512695312	-418.1670227050781	1887.72314453125	319.4040832519531	-405.8493957519531	2320.162109375	461.1416015625	-114.5630264282227	1786.499755859375	62.64053726196289	-368.2938537597656	2252.96240234375	505.6542358398438	-113.6254272460938	1700.723388671875	225.9109954833984	-282.9082336425781	2264.53662109375	376.0921020507812	-127.78955078125	2199.2958984375	422.5715637207031	-129.748779296875	1754.535888671875	196.9236602783203	-370.694580078125	2132.54638671875	241.5034790039062	-163.2991638183594	2290.478759765625	138.0833892822266	-161.6467742919922	2081.761474609375	248.2616882324219	-229.7460174560547	2089.796142578125	215.9141082763672	-257.7848815917969	2065.98779296875	225.7688293457031	-205.5900421142578	1687.74560546875	223.4629516601562	-336.5127868652344
290	1.445	2247.024658203125	1480.283325195312	-451.1327209472656	2161.518798828125	1473.3662109375	-156.8786926269531	2170.927734375	1010.7626953125	-438.9459533691406	2174.366943359375	1021.232788085938	-140.8843383789062	2222.37939453125	959.7627563476562	-423.7433471679688	1727.907104492188	253.9921875	-321.9335632324219	2233.652587890625	974.566650390625	-168.2187957763672	2074.742431640625	905.3118286132812	-434.0011596679688	2111.833251953125	920.3804931640624	-116.222770690918	2077.1806640625	1054.357299804688	-297.1634216308594	2124.163818359375	647.3110961914062	-438.0672912597656	1839.156982421875	376.2730102539062	-405.2690734863281	2044.670043945312	673.0194091796875	-441.9190063476562	2091.775390625	551.649169921875	-416.6178588867188	2262.348388671875	142.2910308837891	-108.960075378418	1900.549194335938	453.5823364257812	-422.7120056152344	2011.74755859375	581.0079956054688	-414.4837341308594	2359.96337890625	730.6574096679688	-109.6189651489258	1839.840942382812	46.91355895996094	-302.2592163085938	2291.647216796875	695.2145385742188	-99.44302368164062	2403.6328125	639.96875	-123.5800170898438	2330.59521484375	607.2225341796875	-115.7741394042969	2026.130493164062	524.6219482421875	-415.5039978027344	2361.36474609375	583.5552978515625	-116.1561737060547	1962.140625	404.007568359375	-419.3695068359375	1899.811401367188	325.6803283691406	-408.3345336914062	2343.54931640625	461.2695617675781	-114.1672439575195	1793.110107421875	64.60400390625	-370.4891052246094	2273.930908203125	501.4002685546875	-113.9499130249023	1714.165283203125	236.8219757080078	-287.6870727539062	2292.847900390625	373.3349609375	-127.3107757568359	2225.037353515625	416.0797729492188	-129.3663482666016	1766.997192382812	202.9851226806641	-374.2555541992188	2167.6416015625	231.6978607177734	-161.2679748535156	2333.0263671875	137.7731781005859	-158.9152069091797	2118.66455078125	234.0598602294922	-230.6051177978516	2129.2724609375	202.1844177246094	-258.5663146972656	2103.787841796875	210.4601440429688	-206.8464202880859	1702.0068359375	233.7271423339844	-341.5709228515625
